<svg xmlns="http://www.w3.org/2000/svg" xmlns:xlink="http://www.w3.org/1999/xlink" width="1080" zoomAndPan="magnify" viewBox="0 0 810 1439.999935" height="1920" preserveAspectRatio="xMidYMid meet" version="1.0"><defs><filter x="0%" y="0%" width="100%" height="100%" id="d19f1cc86d"><feColorMatrix values="0 0 0 0 1 0 0 0 0 1 0 0 0 0 1 0 0 0 1 0" color-interpolation-filters="sRGB"/></filter><mask id="1e5fe1be4c"><g filter="url(#d19f1cc86d)"><rect x="-81" width="972" fill="#000000" y="-143.999994" height="1727.999922" fill-opacity="0.57"/></g></mask><clipPath id="5a1c7b1be9"><path d="M 0 120 L 618 120 L 618 866 L 0 866 Z M 0 120 " clip-rule="nonzero"/></clipPath><clipPath id="ba4b22b118"><path d="M 838.898438 443.855469 L 165.132812 1030.316406 L -223.378906 583.96875 L 450.386719 -2.492188 Z M 838.898438 443.855469 " clip-rule="nonzero"/></clipPath><clipPath id="5e9a543435"><path d="M 838.898438 443.855469 L 165.132812 1030.316406 L -223.378906 583.96875 L 450.386719 -2.492188 Z M 838.898438 443.855469 " clip-rule="nonzero"/></clipPath><clipPath id="a498193283"><rect x="0" width="810" y="0" height="866"/></clipPath><mask id="699b844763"><g filter="url(#d19f1cc86d)"><rect x="-81" width="972" fill="#000000" y="-143.999994" height="1727.999922" fill-opacity="0.62"/></g></mask><clipPath id="1aaefe4f7e"><path d="M 61 91 L 523 91 L 523 745 L 61 745 Z M 61 91 " clip-rule="nonzero"/></clipPath><clipPath id="1558861f71"><path d="M 707.804688 328.574219 L 208.765625 827.617188 L -121.628906 497.21875 L 377.410156 -1.820312 Z M 707.804688 328.574219 " clip-rule="nonzero"/></clipPath><clipPath id="2839f7da89"><path d="M 707.804688 328.574219 L 208.765625 827.617188 L -121.628906 497.21875 L 377.410156 -1.820312 Z M 707.804688 328.574219 " clip-rule="nonzero"/></clipPath><clipPath id="b5717c2e16"><rect x="0" width="707" y="0" height="775"/></clipPath><mask id="2f7535ec0b"><g filter="url(#d19f1cc86d)"><rect x="-81" width="972" fill="#000000" y="-143.999994" height="1727.999922" fill-opacity="0.83"/></g></mask><clipPath id="287827cc68"><path d="M 108 66 L 444 66 L 444 543 L 108 543 Z M 108 66 " clip-rule="nonzero"/></clipPath><clipPath id="461ed0e869"><path d="M 578.605469 239.457031 L 215.332031 602.730469 L -25.441406 361.960938 L 337.835938 -1.3125 Z M 578.605469 239.457031 " clip-rule="nonzero"/></clipPath><clipPath id="af4409dd56"><path d="M 578.605469 239.457031 L 215.332031 602.730469 L -25.441406 361.960938 L 337.835938 -1.3125 Z M 578.605469 239.457031 " clip-rule="nonzero"/></clipPath><clipPath id="5d70fb0f4e"><rect x="0" width="578" y="0" height="603"/></clipPath><mask id="f6bd9b78d0"><g filter="url(#d19f1cc86d)"><rect x="-81" width="972" fill="#000000" y="-143.999994" height="1727.999922" fill-opacity="0.27"/></g></mask><clipPath id="7c95f122be"><path d="M 226 0 L 704 0 L 704 589 L 226 589 Z M 226 0 " clip-rule="nonzero"/></clipPath><clipPath id="f00ead164b"><path d="M 1408.886719 137.195312 L 385.03125 720.285156 L -1.34375 41.84375 L 1022.511719 -541.25 Z M 1408.886719 137.195312 " clip-rule="nonzero"/></clipPath><clipPath id="f197941ea7"><path d="M 1408.886719 137.195312 L 385.03125 720.285156 L -1.34375 41.84375 L 1022.511719 -541.25 Z M 1408.886719 137.195312 " clip-rule="nonzero"/></clipPath><clipPath id="76f5d4d190"><rect x="0" width="704" y="0" height="720"/></clipPath><mask id="527a59e542"><g filter="url(#d19f1cc86d)"><rect x="-81" width="972" fill="#000000" y="-143.999994" height="1727.999922" fill-opacity="0.39"/></g></mask><clipPath id="8b57e678c3"><path d="M 159 0 L 597 0 L 597 521 L 159 521 Z M 159 0 " clip-rule="nonzero"/></clipPath><clipPath id="7051a6c34f"><path d="M 990.226562 203.101562 L 270.722656 612.863281 L -0.59375 136.453125 L 718.90625 -273.304688 Z M 990.226562 203.101562 " clip-rule="nonzero"/></clipPath><clipPath id="67c018280f"><path d="M 990.226562 203.101562 L 270.722656 612.863281 L -0.59375 136.453125 L 718.90625 -273.304688 Z M 990.226562 203.101562 " clip-rule="nonzero"/></clipPath><clipPath id="a986067f93"><rect x="0" width="597" y="0" height="613"/></clipPath><mask id="d78c9bf5f9"><g filter="url(#d19f1cc86d)"><rect x="-81" width="972" fill="#000000" y="-143.999994" height="1727.999922" fill-opacity="0.85"/></g></mask><clipPath id="fbdd754fd6"><path d="M 117 0 L 491 0 L 491 428 L 117 428 Z M 117 0 " clip-rule="nonzero"/></clipPath><clipPath id="ae2cd569e9"><path d="M 727.226562 194.226562 L 198.683594 495.238281 L -0.628906 145.261719 L 527.914062 -155.746094 Z M 727.226562 194.226562 " clip-rule="nonzero"/></clipPath><clipPath id="0f7a7cf0d8"><path d="M 727.226562 194.226562 L 198.683594 495.238281 L -0.628906 145.261719 L 527.914062 -155.746094 Z M 727.226562 194.226562 " clip-rule="nonzero"/></clipPath><clipPath id="c7b75c5356"><rect x="0" width="491" y="0" height="496"/></clipPath><mask id="8139127ed1"><g filter="url(#d19f1cc86d)"><rect x="-81" width="972" fill="#000000" y="-143.999994" height="1727.999922" fill-opacity="0.5"/></g></mask><clipPath id="4dcad41d12"><path d="M 0 1 L 81.800781 1 L 81.800781 152 L 0 152 Z M 0 1 " clip-rule="nonzero"/></clipPath><clipPath id="a733ea39c6"><rect x="0" width="82" y="0" height="153"/></clipPath><mask id="f55c819392"><g filter="url(#d19f1cc86d)"><rect x="-81" width="972" fill="#000000" y="-143.999994" height="1727.999922" fill-opacity="0.26"/></g></mask><clipPath id="d25fe6cea1"><path d="M 0 31 L 218 31 L 218 609 L 0 609 Z M 0 31 " clip-rule="nonzero"/></clipPath><clipPath id="e017c3f254"><path d="M -212.34375 543.976562 L -63.15625 0.0664062 L 297.039062 98.863281 L 147.851562 642.773438 Z M -212.34375 543.976562 " clip-rule="nonzero"/></clipPath><clipPath id="181c78c13b"><path d="M -212.34375 543.976562 L -63.15625 0.0664062 L 297.039062 98.863281 L 147.851562 642.773438 Z M -212.34375 543.976562 " clip-rule="nonzero"/></clipPath><clipPath id="17881552c3"><rect x="0" width="296" y="0" height="642"/></clipPath><mask id="b27f170136"><g filter="url(#d19f1cc86d)"><rect x="-81" width="972" fill="#000000" y="-143.999994" height="1727.999922" fill-opacity="0.46"/></g></mask><clipPath id="2132974e09"><path d="M 0 30 L 174 30 L 174 609 L 0 609 Z M 0 30 " clip-rule="nonzero"/></clipPath><clipPath id="105b42d4f9"><path d="M -256.296875 543.777344 L -107.109375 -0.132812 L 253.085938 98.664062 L 103.898438 642.578125 Z M -256.296875 543.777344 " clip-rule="nonzero"/></clipPath><clipPath id="189661bff5"><path d="M -256.296875 543.777344 L -107.109375 -0.132812 L 253.085938 98.664062 L 103.898438 642.578125 Z M -256.296875 543.777344 " clip-rule="nonzero"/></clipPath><clipPath id="1874d5d9c8"><rect x="0" width="252" y="0" height="641"/></clipPath><mask id="fa81751233"><g filter="url(#d19f1cc86d)"><rect x="-81" width="972" fill="#000000" y="-143.999994" height="1727.999922" fill-opacity="0.75"/></g></mask><clipPath id="03196fa4f5"><path d="M 0 30 L 133 30 L 133 609 L 0 609 Z M 0 30 " clip-rule="nonzero"/></clipPath><clipPath id="20d0e76088"><path d="M -297.101562 543.777344 L -147.914062 -0.132812 L 212.28125 98.664062 L 63.09375 642.578125 Z M -297.101562 543.777344 " clip-rule="nonzero"/></clipPath><clipPath id="8b60bf49d7"><path d="M -297.101562 543.777344 L -147.914062 -0.132812 L 212.28125 98.664062 L 63.09375 642.578125 Z M -297.101562 543.777344 " clip-rule="nonzero"/></clipPath><clipPath id="dd79ee165b"><rect x="0" width="211" y="0" height="641"/></clipPath><mask id="c20702114a"><g filter="url(#d19f1cc86d)"><rect x="-81" width="972" fill="#000000" y="-143.999994" height="1727.999922" fill-opacity="0.5"/></g></mask><clipPath id="62312fe71f"><path d="M 121 0 L 345 0 L 345 298 L 121 298 Z M 121 0 " clip-rule="nonzero"/></clipPath><clipPath id="4ef8a04c8b"><path d="M 0.488281 190.609375 L 231.8125 -149.109375 L 456.847656 4.121094 L 225.523438 343.839844 Z M 0.488281 190.609375 " clip-rule="nonzero"/></clipPath><clipPath id="457968ed16"><path d="M 0.488281 190.609375 L 231.8125 -149.109375 L 456.847656 4.121094 L 225.523438 343.839844 Z M 0.488281 190.609375 " clip-rule="nonzero"/></clipPath><clipPath id="2115dd32ad"><rect x="0" width="456" y="0" height="343"/></clipPath><mask id="b01166958d"><g filter="url(#d19f1cc86d)"><rect x="-81" width="972" fill="#000000" y="-143.999994" height="1727.999922" fill-opacity="0.5"/></g></mask><clipPath id="0460cacc39"><path d="M 153 64 L 390 64 L 390 597 L 153 597 Z M 153 64 " clip-rule="nonzero"/></clipPath><clipPath id="4d5b5a5b14"><path d="M -0.707031 420.058594 L 374 0.535156 L 652.003906 248.839844 L 277.296875 668.363281 Z M -0.707031 420.058594 " clip-rule="nonzero"/></clipPath><clipPath id="60b8c8b078"><path d="M -0.707031 420.058594 L 374 0.535156 L 652.003906 248.839844 L 277.296875 668.363281 Z M -0.707031 420.058594 " clip-rule="nonzero"/></clipPath><clipPath id="64de67055a"><rect x="0" width="390" y="0" height="667"/></clipPath><mask id="ed49779282"><g filter="url(#d19f1cc86d)"><rect x="-81" width="972" fill="#000000" y="-143.999994" height="1727.999922" fill-opacity="0.61"/></g></mask><clipPath id="cb18fcec20"><path d="M 99 0 L 286 0 L 286 272 L 99 272 Z M 99 0 " clip-rule="nonzero"/></clipPath><clipPath id="c39b6f4199"><path d="M -0.460938 182.5625 L 191.609375 -99.503906 L 378.828125 27.976562 L 186.757812 310.042969 Z M -0.460938 182.5625 " clip-rule="nonzero"/></clipPath><clipPath id="f66db48b47"><path d="M -0.460938 182.5625 L 191.609375 -99.503906 L 378.828125 27.976562 L 186.757812 310.042969 Z M -0.460938 182.5625 " clip-rule="nonzero"/></clipPath><clipPath id="9b166c165a"><rect x="0" width="378" y="0" height="309"/></clipPath><mask id="b3cf0f411e"><g filter="url(#d19f1cc86d)"><rect x="-81" width="972" fill="#000000" y="-143.999994" height="1727.999922" fill-opacity="0.61"/></g></mask><clipPath id="658637c451"><path d="M 128 53 L 338 53 L 338 496 L 128 496 Z M 128 53 " clip-rule="nonzero"/></clipPath><clipPath id="bf708721cf"><path d="M 0.230469 348.648438 L 311.488281 0.167969 L 542.507812 206.503906 L 231.25 554.988281 Z M 0.230469 348.648438 " clip-rule="nonzero"/></clipPath><clipPath id="aeeda8d443"><path d="M 0.230469 348.648438 L 311.488281 0.167969 L 542.507812 206.503906 L 231.25 554.988281 Z M 0.230469 348.648438 " clip-rule="nonzero"/></clipPath><clipPath id="d4121c0e5d"><rect x="0" width="338" y="0" height="554"/></clipPath><mask id="cb54f86c96"><g filter="url(#d19f1cc86d)"><rect x="-81" width="972" fill="#000000" y="-143.999994" height="1727.999922" fill-opacity="0.7"/></g></mask><clipPath id="e8f40976dc"><path d="M 56 15 L 282 15 L 282 267 L 56 267 Z M 56 15 " clip-rule="nonzero"/></clipPath><clipPath id="45e066d191"><path d="M 120.027344 374.054688 L -24.609375 144.289062 L 223.566406 -11.933594 L 368.199219 217.832031 Z M 120.027344 374.054688 " clip-rule="nonzero"/></clipPath><clipPath id="bcc4a5d797"><path d="M 120.027344 374.054688 L -24.609375 144.289062 L 223.566406 -11.933594 L 368.199219 217.832031 Z M 120.027344 374.054688 " clip-rule="nonzero"/></clipPath><clipPath id="c5d2c927d6"><rect x="0" width="335" y="0" height="321"/></clipPath><mask id="624f4584a0"><g filter="url(#d19f1cc86d)"><rect x="-81" width="972" fill="#000000" y="-143.999994" height="1727.999922" fill-opacity="0.7"/></g></mask><clipPath id="1869e3b3c3"><path d="M 78 79 L 357 79 L 357 360 L 78 360 Z M 78 79 " clip-rule="nonzero"/></clipPath><clipPath id="16c0b849a3"><path d="M 284.609375 -76.691406 L 527.597656 235.992188 L 190.039062 498.308594 L -52.949219 185.625 Z M 284.609375 -76.691406 " clip-rule="nonzero"/></clipPath><clipPath id="444a067006"><path d="M 284.609375 -76.691406 L 527.597656 235.992188 L 190.039062 498.308594 L -52.949219 185.625 Z M 284.609375 -76.691406 " clip-rule="nonzero"/></clipPath><clipPath id="8b813457b2"><rect x="0" width="357" y="0" height="360"/></clipPath><clipPath id="661d5e5979"><path d="M 160 550 L 316 550 L 316 723 L 160 723 Z M 160 550 " clip-rule="nonzero"/></clipPath><clipPath id="2a36327931"><path d="M 204.464844 796.054688 L 105.378906 638.644531 L 275.480469 531.566406 L 374.566406 688.976562 Z M 204.464844 796.054688 " clip-rule="nonzero"/></clipPath><clipPath id="4c6297b279"><path d="M 204.464844 796.054688 L 105.378906 638.644531 L 275.480469 531.566406 L 374.566406 688.976562 Z M 204.464844 796.054688 " clip-rule="nonzero"/></clipPath><clipPath id="9a8211e1d1"><path d="M 556 1202 L 778 1202 L 778 1440 L 556 1440 Z M 556 1202 " clip-rule="nonzero"/></clipPath><clipPath id="349dfad6a3"><path d="M 697.769531 1095.09375 L 864.363281 1309.472656 L 632.8125 1489.414062 L 466.21875 1275.035156 Z M 697.769531 1095.09375 " clip-rule="nonzero"/></clipPath><clipPath id="51cebc1b37"><path d="M 697.769531 1095.09375 L 864.363281 1309.472656 L 632.8125 1489.414062 L 466.21875 1275.035156 Z M 697.769531 1095.09375 " clip-rule="nonzero"/></clipPath></defs><rect x="-81" width="972" fill="#ffffff" y="-143.999994" height="1727.999922" fill-opacity="1"/><rect x="-81" width="972" fill="#e9fbff" y="-143.999994" height="1727.999922" fill-opacity="1"/><g mask="url(#1e5fe1be4c)"><g transform="matrix(1, 0, 0, 1, 0, 574)"><g clip-path="url(#a498193283)"><g clip-path="url(#5a1c7b1be9)"><g clip-path="url(#ba4b22b118)"><g clip-path="url(#5e9a543435)"><path fill="#ccf0f8" d="M 539.222656 366.699219 C 527.324219 377.3125 514.53125 386.902344 500.992188 395.335938 C 480.234375 408.507812 461.609375 424.71875 445.574219 443.316406 C 431.003906 460.636719 419.742188 479.976562 409.664062 500.089844 C 402.3125 514.738281 402.363281 529.902344 406.695312 544.949219 C 412.257812 564.078125 418.539062 582.839844 425.09375 601.625 C 430.9375 618.707031 438.339844 635.203125 441.65625 652.9375 C 446.695312 677.679688 445.328125 703.355469 437.730469 727.496094 C 431.960938 745.152344 426.734375 762.84375 421.09375 780.644531 C 417.035156 793.457031 409.910156 804.8125 401.867188 815.421875 C 382.15625 841.34375 358.398438 862.023438 328.621094 876.085938 C 293.566406 892.675781 257.207031 906.28125 219.683594 916.777344 C 191.859375 924.496094 163.289062 925.136719 134.613281 923.289062 C 118.957031 922.480469 103.4375 919.75 88.46875 914.992188 C 71.617188 909.554688 56.132812 900.351562 43.636719 887.769531 C 30.097656 874.292969 17.277344 860.449219 9.402344 842.816406 C -6 808.535156 -9.621094 773.28125 4.8125 738.035156 C 10.152344 724.625 17.921875 711.929688 25.800781 699.660156 C 43.121094 672.46875 55.929688 642.761719 63.75 611.46875 C 69.792969 587.90625 70.640625 563.710938 70.816406 539.328125 C 70.867188 512.734375 70.222656 486.230469 71.648438 459.730469 C 73.742188 421.5625 79.527344 383.789062 92.773438 347.773438 C 100.402344 327.214844 109.617188 307.59375 123.46875 290.636719 C 147.5625 261.160156 178.027344 243.148438 216.734375 241.417969 C 238.449219 240.304688 260.089844 240.289062 281.636719 239.574219 C 301.101562 239.132812 320.433594 238.539062 339.398438 233.375 C 360.996094 227.980469 380.777344 216.949219 396.859375 201.660156 C 408.835938 189.949219 420.296875 177.652344 431.871094 165.773438 C 444.910156 152.621094 458.84375 140.492188 475.308594 131.574219 C 504.398438 115.53125 532.59375 118.3125 559.914062 135.777344 C 584.835938 151.972656 600.011719 175.625 609.6875 203.03125 C 614.410156 216.453125 616.878906 230.542969 617.003906 244.609375 C 617.046875 263.90625 610.214844 280.933594 600.40625 297.207031 C 589.511719 315.195312 575.625 330.632812 560.824219 345.320312 Z M 539.222656 366.699219 " fill-opacity="1" fill-rule="nonzero"/></g></g></g></g></g></g><g mask="url(#699b844763)"><g transform="matrix(1, 0, 0, 1, 0, 665)"><g clip-path="url(#b5717c2e16)"><g clip-path="url(#1aaefe4f7e)"><g clip-path="url(#1558861f71)"><g clip-path="url(#2839f7da89)"><path fill="#ccf0f8" d="M 467.476562 284.210938 C 458.675781 293.226562 449.117188 301.484375 438.910156 308.871094 C 423.265625 320.386719 409.472656 334.183594 397.847656 349.714844 C 387.308594 364.164062 379.484375 380.019531 372.636719 396.417969 C 367.636719 408.367188 368.503906 420.3125 372.734375 431.929688 C 378.160156 446.695312 384.125 461.136719 390.3125 475.578125 C 395.84375 488.714844 402.574219 501.308594 406.152344 515.097656 C 411.46875 534.316406 411.785156 554.625 407.109375 574.0625 C 403.519531 588.289062 400.367188 602.515625 396.886719 616.851562 C 394.386719 627.167969 389.386719 636.511719 383.628906 645.308594 C 369.503906 666.8125 351.90625 684.410156 329.207031 697.125 C 302.488281 712.121094 274.578125 724.835938 245.578125 735.160156 C 224.074219 742.769531 201.597656 744.839844 178.898438 744.957031 C 166.519531 745.175781 154.140625 743.878906 142.089844 740.949219 C 128.515625 737.589844 115.8125 731.1875 105.28125 721.960938 C 93.882812 712.082031 83.027344 701.878906 75.867188 688.414062 C 61.867188 662.25 57.097656 634.667969 66.554688 606.105469 C 70.03125 595.246094 75.464844 584.816406 81.007812 574.71875 C 93.175781 552.34375 101.65625 528.234375 106.117188 503.148438 C 109.597656 484.25 108.953125 465.136719 107.765625 445.917969 C 106.359375 424.960938 104.414062 404.109375 104.09375 383.152344 C 103.667969 352.964844 106.175781 322.882812 114.65625 293.777344 C 119.550781 277.160156 125.746094 261.195312 135.742188 247.078125 C 153.125 222.527344 176.148438 206.667969 206.558594 203.179688 C 223.605469 201.113281 240.65625 199.910156 257.597656 198.167969 C 272.910156 196.753906 288.113281 195.226562 302.773438 190.117188 C 319.5 184.683594 334.488281 174.902344 346.328125 161.976562 C 355.128906 152.09375 363.492188 141.773438 371.96875 131.78125 C 381.527344 120.699219 391.847656 110.382812 404.335938 102.449219 C 426.386719 88.214844 448.757812 88.859375 471.230469 101.125 C 491.75 112.519531 504.992188 130.324219 514.105469 151.386719 C 518.554688 161.703125 521.265625 172.667969 522.132812 183.746094 C 523.214844 198.949219 518.757812 212.742188 511.910156 226.097656 C 504.304688 240.871094 494.199219 253.796875 483.335938 266.179688 Z M 467.476562 284.210938 " fill-opacity="1" fill-rule="nonzero"/></g></g></g></g></g></g><g mask="url(#2f7535ec0b)"><g transform="matrix(1, 0, 0, 1, 0, 777)"><g clip-path="url(#5d70fb0f4e)"><g clip-path="url(#287827cc68)"><g clip-path="url(#461ed0e869)"><g clip-path="url(#af4409dd56)"><path fill="#ccf0f8" d="M 403.546875 207.050781 C 397.140625 213.613281 390.183594 219.625 382.75 225 C 371.363281 233.382812 361.320312 243.425781 352.859375 254.734375 C 345.1875 265.25 339.496094 276.796875 334.515625 288.738281 C 330.878906 297.4375 331.515625 306.136719 334.601562 314.601562 C 338.558594 325.359375 342.910156 335.878906 347.421875 346.398438 C 351.457031 355.96875 356.363281 365.144531 358.972656 375.191406 C 362.851562 389.191406 363.09375 403.980469 359.695312 418.140625 C 357.085938 428.5 354.792969 438.859375 352.265625 449.300781 C 350.449219 456.8125 346.8125 463.613281 342.621094 470.019531 C 332.34375 485.679688 319.53125 498.488281 303.003906 507.738281 C 283.546875 518.648438 263.222656 527.898438 242.109375 535.410156 C 226.449219 540.941406 210.078125 542.441406 193.546875 542.515625 C 184.53125 542.671875 175.511719 541.722656 166.734375 539.585938 C 156.847656 537.132812 147.589844 532.464844 139.917969 525.738281 C 131.613281 518.539062 123.703125 511.101562 118.480469 501.292969 C 108.273438 482.230469 104.789062 462.140625 111.664062 441.339844 C 114.195312 433.433594 118.148438 425.839844 122.179688 418.484375 C 131.035156 402.195312 137.199219 384.636719 140.4375 366.367188 C 142.96875 352.605469 142.488281 338.683594 141.617188 324.6875 C 140.585938 309.421875 139.160156 294.234375 138.917969 278.96875 C 138.597656 256.980469 140.414062 235.074219 146.578125 213.878906 C 150.132812 201.777344 154.640625 190.152344 161.914062 179.871094 C 174.566406 162 191.332031 150.457031 213.476562 147.929688 C 225.894531 146.429688 238.308594 145.5625 250.648438 144.296875 C 261.800781 143.273438 272.875 142.167969 283.550781 138.453125 C 295.730469 134.5 306.644531 127.382812 315.261719 117.972656 C 321.667969 110.777344 327.753906 103.265625 333.921875 95.988281 C 340.882812 87.925781 348.394531 80.410156 357.488281 74.640625 C 373.542969 64.28125 389.835938 64.761719 406.207031 73.699219 C 421.160156 82.007812 430.8125 94.980469 437.457031 110.328125 C 440.703125 117.839844 442.679688 125.832031 443.316406 133.898438 C 444.109375 144.972656 440.867188 155.015625 435.886719 164.742188 C 430.351562 175.496094 423 184.910156 415.09375 193.921875 Z M 403.546875 207.050781 " fill-opacity="1" fill-rule="nonzero"/></g></g></g></g></g></g><g mask="url(#f6bd9b78d0)"><g transform="matrix(1, 0, 0, 1, 106, -0.000000000000101068)"><g clip-path="url(#76f5d4d190)"><g clip-path="url(#7c95f122be)"><g clip-path="url(#f00ead164b)"><g clip-path="url(#f197941ea7)"><path fill="#ccf0f8" d="M 1041.394531 -40.617188 C 1023.246094 -29.988281 1004.210938 -20.917969 984.507812 -13.535156 C 954.238281 -1.902344 925.933594 14.214844 900.359375 34.09375 C 877.015625 52.703125 857.417969 74.785156 839.160156 98.175781 C 825.835938 115.207031 821.960938 134.832031 823.652344 155.421875 C 825.875 181.609375 829.117188 207.511719 832.707031 233.511719 C 835.824219 257.125 841.105469 280.394531 840.789062 304.191406 C 840.867188 337.503906 832.425781 370.359375 816.320312 399.605469 C 804.265625 420.933594 792.910156 442.457031 780.984375 464.011719 C 772.402344 479.523438 760.234375 492.359375 747.078125 503.984375 C 714.84375 532.378906 678.738281 552.941406 636.574219 563.375 C 586.925781 575.707031 536.363281 583.839844 485.105469 587.640625 C 447.117188 590.382812 410 583.769531 373.398438 573.914062 C 353.359375 568.792969 333.996094 561.222656 315.878906 551.171875 C 295.5 539.75 277.867188 523.816406 264.976562 504.292969 C 250.972656 483.335938 237.992188 462.09375 232.394531 437.234375 C 221.390625 388.886719 225.875 342.347656 253.703125 300.519531 C 264.097656 284.5625 277.445312 270.171875 290.828125 256.351562 C 320.296875 225.691406 344.585938 190.605469 362.835938 152.164062 C 376.777344 123.265625 384.167969 92.191406 390.734375 60.703125 C 397.714844 26.320312 403.777344 -8.128906 412.507812 -42.03125 C 425.140625 -90.851562 442.449219 -138.199219 468.941406 -181.335938 C 484.152344 -205.9375 501.171875 -228.914062 523.496094 -247.238281 C 562.320312 -279.089844 606.40625 -294.453125 656.914062 -286.613281 C 685.285156 -282.402344 713.273438 -276.789062 741.328125 -272.101562 C 766.613281 -267.609375 791.773438 -263.339844 817.636719 -265.082031 C 846.972656 -266.433594 875.425781 -275.554688 900.199219 -291.140625 C 918.730469 -303.167969 936.753906 -316.089844 954.808594 -328.441406 C 975.09375 -342.058594 996.265625 -354.117188 1019.882812 -361.367188 C 1061.671875 -374.535156 1097.414062 -363.601562 1128.199219 -333.898438 C 1156.222656 -306.460938 1169.695312 -271.921875 1175.085938 -233.953125 C 1177.699219 -215.371094 1177.230469 -196.503906 1173.738281 -178.277344 C 1168.773438 -153.308594 1155.507812 -133.0625 1138.589844 -114.570312 C 1119.824219 -94.140625 1097.851562 -77.789062 1074.894531 -62.648438 Z M 1041.394531 -40.617188 " fill-opacity="1" fill-rule="nonzero"/></g></g></g></g></g></g><g mask="url(#527a59e542)"><g transform="matrix(1, 0, 0, 1, 213, -0.000000000000101068)"><g clip-path="url(#a986067f93)"><g clip-path="url(#8b57e678c3)"><g clip-path="url(#7051a6c34f)"><g clip-path="url(#67c018280f)"><path fill="#ccf0f8" d="M 732.0625 78.300781 C 719.308594 85.773438 705.929688 92.148438 692.085938 97.335938 C 670.816406 105.511719 650.925781 116.839844 632.953125 130.808594 C 616.546875 143.882812 602.773438 159.394531 589.9375 175.828125 C 580.574219 187.792969 577.847656 201.578125 579.027344 216.035156 C 580.585938 234.429688 582.855469 252.621094 585.375 270.882812 C 587.558594 287.464844 591.265625 303.804688 591.035156 320.519531 C 591.085938 343.917969 585.144531 366.992188 573.824219 387.539062 C 565.347656 402.523438 557.367188 417.640625 548.980469 432.78125 C 542.949219 443.679688 534.394531 452.699219 525.148438 460.863281 C 502.496094 480.816406 477.125 495.265625 447.496094 502.601562 C 412.609375 511.273438 377.082031 516.996094 341.066406 519.679688 C 314.375 521.613281 288.296875 516.976562 262.582031 510.0625 C 248.507812 506.472656 234.902344 501.160156 222.171875 494.105469 C 207.859375 486.085938 195.472656 474.898438 186.421875 461.191406 C 176.585938 446.472656 167.46875 431.558594 163.542969 414.101562 C 155.820312 380.148438 158.984375 347.457031 178.546875 318.074219 C 185.851562 306.863281 195.234375 296.753906 204.640625 287.042969 C 225.351562 265.503906 242.425781 240.855469 255.257812 213.855469 C 265.058594 193.554688 270.257812 171.726562 274.878906 149.609375 C 279.792969 125.460938 284.058594 101.265625 290.199219 77.449219 C 299.085938 43.160156 311.257812 9.902344 329.882812 -20.398438 C 340.574219 -37.683594 352.539062 -53.824219 368.230469 -66.699219 C 395.515625 -89.078125 426.492188 -99.878906 461.976562 -94.382812 C 481.910156 -91.433594 501.574219 -87.5 521.285156 -84.210938 C 539.050781 -81.0625 556.726562 -78.066406 574.898438 -79.296875 C 595.511719 -80.253906 615.503906 -86.667969 632.914062 -97.617188 C 645.9375 -106.070312 658.601562 -115.152344 671.292969 -123.828125 C 685.546875 -133.398438 700.425781 -141.871094 717.019531 -146.96875 C 746.382812 -156.226562 771.496094 -148.554688 793.117188 -127.703125 C 812.800781 -108.4375 822.261719 -84.179688 826.039062 -57.515625 C 827.871094 -44.464844 827.535156 -31.210938 825.078125 -18.410156 C 821.582031 -0.875 812.261719 13.347656 800.371094 26.339844 C 787.179688 40.691406 771.738281 52.183594 755.601562 62.820312 Z M 732.0625 78.300781 " fill-opacity="1" fill-rule="nonzero"/></g></g></g></g></g></g><g mask="url(#d78c9bf5f9)"><g transform="matrix(1, 0, 0, 1, 319, -0.000000000000101068)"><g clip-path="url(#c7b75c5356)"><g clip-path="url(#fbdd754fd6)"><g clip-path="url(#ae2cd569e9)"><g clip-path="url(#0f7a7cf0d8)"><path fill="#ccf0f8" d="M 537.582031 102.546875 C 528.210938 108.035156 518.382812 112.71875 508.214844 116.53125 C 492.589844 122.535156 477.976562 130.855469 464.773438 141.117188 C 452.722656 150.722656 442.605469 162.117188 433.175781 174.1875 C 426.296875 182.980469 424.292969 193.105469 425.160156 203.726562 C 426.304688 217.238281 427.972656 230.601562 429.824219 244.015625 C 431.425781 256.199219 434.148438 268.199219 433.980469 280.480469 C 434.019531 297.667969 429.652344 314.617188 421.335938 329.710938 C 415.109375 340.71875 409.246094 351.824219 403.085938 362.945312 C 398.65625 370.953125 392.371094 377.578125 385.582031 383.578125 C 368.9375 398.230469 350.300781 408.847656 328.535156 414.238281 C 302.910156 420.609375 276.808594 424.8125 250.355469 426.78125 C 230.746094 428.203125 211.589844 424.796875 192.699219 419.71875 C 182.359375 417.078125 172.367188 413.175781 163.015625 407.996094 C 152.5 402.105469 143.398438 393.886719 136.75 383.816406 C 129.527344 373.003906 122.828125 362.046875 119.945312 349.222656 C 114.273438 324.28125 116.597656 300.269531 130.96875 278.683594 C 136.335938 270.449219 143.226562 263.023438 150.136719 255.890625 C 165.351562 240.066406 177.894531 221.960938 187.320312 202.125 C 194.519531 187.210938 198.339844 171.179688 201.734375 154.929688 C 205.34375 137.191406 208.476562 119.414062 212.988281 101.921875 C 219.515625 76.730469 228.457031 52.300781 242.140625 30.042969 C 249.996094 17.34375 258.78125 5.488281 270.308594 -3.96875 C 290.351562 -20.410156 313.109375 -28.34375 339.175781 -24.308594 C 353.820312 -22.140625 368.265625 -19.25 382.742188 -16.835938 C 395.792969 -14.519531 408.777344 -12.320312 422.128906 -13.226562 C 437.269531 -13.929688 451.957031 -18.636719 464.746094 -26.683594 C 474.3125 -32.894531 483.617188 -39.5625 492.9375 -45.9375 C 503.410156 -52.964844 514.339844 -59.191406 526.53125 -62.9375 C 548.101562 -69.738281 566.546875 -64.101562 582.433594 -48.785156 C 596.890625 -34.632812 603.839844 -16.8125 606.613281 2.773438 C 607.960938 12.363281 607.714844 22.097656 605.910156 31.5 C 603.34375 44.382812 596.492188 54.832031 587.757812 64.375 C 578.070312 74.917969 566.726562 83.359375 554.875 91.175781 Z M 537.582031 102.546875 " fill-opacity="1" fill-rule="nonzero"/></g></g></g></g></g></g><g mask="url(#8139127ed1)"><g transform="matrix(1, 0, 0, 1, 0, 786)"><g clip-path="url(#a733ea39c6)"><g clip-path="url(#4dcad41d12)"><path fill="#ccf0f8" d="M -102.636719 66.386719 C -98.542969 66.335938 -94.445312 66.636719 -90.398438 67.285156 C -84.152344 68.238281 -77.808594 68.238281 -71.566406 67.335938 C -65.820312 66.4375 -60.375 64.585938 -55.03125 62.382812 C -51.132812 60.785156 -48.585938 57.832031 -46.886719 54.179688 C -44.738281 49.527344 -42.789062 44.824219 -40.890625 40.074219 C -39.144531 35.769531 -37.792969 31.320312 -35.445312 27.316406 C -32.25 21.664062 -27.652344 16.910156 -22.109375 13.507812 C -18.011719 11.058594 -14.015625 8.507812 -9.917969 6.003906 C -6.972656 4.203125 -3.675781 3.203125 -0.328125 2.503906 C 7.867188 0.804688 15.957031 0.804688 24.101562 3.105469 C 33.691406 5.804688 43.035156 9.308594 52.078125 13.609375 C 58.769531 16.8125 64.417969 21.511719 69.660156 26.714844 C 72.558594 29.519531 75.105469 32.667969 77.207031 36.121094 C 79.554688 40.023438 81 44.425781 81.300781 48.976562 C 81.652344 53.878906 81.800781 58.734375 80.351562 63.484375 C 77.554688 72.738281 72.308594 80.191406 63.566406 84.59375 C 60.269531 86.296875 56.625 87.445312 53.027344 88.496094 C 45.082031 90.847656 37.589844 94.449219 30.796875 99.203125 C 25.648438 102.753906 21.402344 107.308594 17.257812 112.007812 C 12.761719 117.160156 8.414062 122.414062 3.667969 127.316406 C -3.175781 134.371094 -10.667969 140.722656 -19.3125 145.476562 C -24.257812 148.175781 -29.351562 150.429688 -34.898438 151.378906 C -44.539062 153.03125 -53.480469 151.378906 -61.273438 145.175781 C -65.671875 141.722656 -69.867188 138.074219 -74.164062 134.570312 C -78.007812 131.367188 -81.855469 128.21875 -86.402344 126.015625 C -91.496094 123.414062 -97.191406 122.214844 -102.886719 122.464844 C -107.183594 122.714844 -111.480469 123.164062 -115.726562 123.515625 C -120.472656 123.867188 -125.21875 123.867188 -129.914062 122.816406 C -138.257812 121.015625 -143.253906 115.710938 -145.601562 107.707031 C -147.699219 100.351562 -146.648438 93.199219 -143.902344 86.246094 C -142.554688 82.84375 -140.65625 79.691406 -138.308594 76.941406 C -135.058594 73.191406 -130.863281 71.039062 -126.21875 69.539062 C -121.070312 67.886719 -115.777344 67.238281 -110.429688 66.886719 Z M -102.636719 66.386719 " fill-opacity="1" fill-rule="nonzero"/></g></g></g></g><g mask="url(#f55c819392)"><g transform="matrix(1, 0, 0, 1, 0, 62)"><g clip-path="url(#17881552c3)"><g clip-path="url(#d25fe6cea1)"><g clip-path="url(#e017c3f254)"><g clip-path="url(#181c78c13b)"><path fill="#ccf0f8" d="M -27.867188 479.75 C -25.320312 470.007812 -21.949219 460.492188 -17.78125 451.324219 C -11.472656 437.144531 -7.347656 422.105469 -5.417969 406.722656 C -3.8125 392.523438 -4.652344 378.417969 -6.386719 364.320312 C -7.640625 354.046875 -12.964844 346.09375 -20.5 339.699219 C -30.109375 331.589844 -39.96875 323.917969 -49.976562 316.335938 C -59.019531 309.402344 -68.675781 303.316406 -76.617188 295.152344 C -87.914062 283.910156 -96.167969 269.933594 -100.609375 254.582031 C -103.746094 243.285156 -107.183594 232.15625 -110.4375 220.824219 C -112.785156 212.671875 -113.007812 204.207031 -112.488281 195.820312 C -111.1875 175.300781 -105.925781 156.121094 -95.1875 138.316406 C -82.5625 117.335938 -68.207031 97.46875 -52.148438 78.828125 C -40.222656 65.042969 -25.429688 54.714844 -9.710938 45.660156 C -1.199219 40.609375 7.910156 36.617188 17.441406 33.882812 C 28.199219 30.851562 39.554688 30.273438 50.519531 32.519531 C 62.34375 34.871094 73.921875 37.664062 84.222656 44.183594 C 104.300781 56.816406 118.523438 74.085938 123.253906 97.660156 C 125.136719 106.578125 125.488281 115.96875 125.632812 125.175781 C 126.03125 145.527344 129.683594 165.621094 136.507812 184.808594 C 141.566406 199.308594 149.578125 212.324219 158.007812 225.203125 C 167.273438 239.203125 176.875 252.910156 185.386719 267.339844 C 197.625 288.136719 207.785156 310.019531 213.410156 333.585938 C 216.585938 347.058594 218.597656 360.597656 217.242188 374.355469 C 214.878906 398.277344 205.160156 418.398438 185.421875 432.84375 C 174.398438 441.023438 163.03125 448.597656 151.953125 456.507812 C 141.878906 463.546875 131.921875 470.617188 123.757812 479.964844 C 114.292969 490.351562 107.75 503.070312 104.640625 516.730469 C 102.4375 527.074219 100.710938 537.546875 98.777344 547.839844 C 96.523438 559.3125 93.4375 570.5625 87.898438 581.007812 C 78.214844 599.613281 62.421875 608.011719 41.960938 608.382812 C 23.199219 608.582031 6.957031 601.453125 -7.707031 590.429688 C -14.875 585.027344 -21.097656 578.484375 -26.082031 571.132812 C -32.847656 561.003906 -35.207031 549.660156 -35.738281 537.675781 C -36.296875 524.410156 -34.394531 511.4375 -31.75 498.542969 Z M -27.867188 479.75 " fill-opacity="1" fill-rule="nonzero"/></g></g></g></g></g></g><g mask="url(#b27f170136)"><g transform="matrix(1, 0, 0, 1, 0, 39)"><g clip-path="url(#1874d5d9c8)"><g clip-path="url(#2132974e09)"><g clip-path="url(#105b42d4f9)"><g clip-path="url(#189661bff5)"><path fill="#ccf0f8" d="M -71.820312 479.550781 C -69.273438 469.8125 -65.902344 460.296875 -61.730469 451.128906 C -55.425781 436.945312 -51.300781 421.910156 -49.371094 406.527344 C -47.765625 392.328125 -48.605469 378.21875 -50.339844 364.125 C -51.59375 353.851562 -56.917969 345.894531 -64.453125 339.5 C -74.0625 331.390625 -83.921875 323.722656 -93.929688 316.140625 C -102.972656 309.203125 -112.628906 303.117188 -120.570312 294.957031 C -131.863281 283.710938 -140.121094 269.734375 -144.5625 254.386719 C -147.699219 243.085938 -151.136719 231.960938 -154.390625 220.628906 C -156.734375 212.472656 -156.960938 204.011719 -156.441406 195.625 C -155.140625 175.101562 -149.878906 155.921875 -139.140625 138.117188 C -126.515625 117.136719 -112.15625 97.269531 -96.101562 78.632812 C -84.175781 64.84375 -69.382812 54.519531 -53.664062 45.460938 C -45.152344 40.414062 -36.039062 36.421875 -26.511719 33.6875 C -15.753906 30.65625 -4.398438 30.078125 6.566406 32.320312 C 18.394531 34.671875 29.96875 37.46875 40.269531 43.984375 C 60.347656 56.621094 74.570312 73.886719 79.300781 97.464844 C 81.183594 106.382812 81.535156 115.773438 81.679688 124.976562 C 82.082031 145.328125 85.730469 165.425781 92.558594 184.609375 C 97.613281 199.109375 105.625 212.128906 114.054688 225.007812 C 123.320312 239.003906 132.921875 252.714844 141.433594 267.144531 C 153.671875 287.941406 163.832031 309.820312 169.457031 333.386719 C 172.632812 346.863281 174.644531 360.398438 173.289062 374.160156 C 170.925781 398.078125 161.210938 418.203125 141.46875 432.644531 C 130.445312 440.824219 119.078125 448.402344 108 456.3125 C 97.925781 463.347656 87.96875 470.421875 79.804688 479.765625 C 70.339844 490.15625 63.796875 502.875 60.6875 516.53125 C 58.484375 526.878906 56.757812 537.351562 54.828125 547.640625 C 52.570312 559.117188 49.484375 570.363281 43.945312 580.8125 C 34.261719 599.414062 18.472656 607.8125 -1.992188 608.183594 C -20.753906 608.386719 -36.992188 601.257812 -51.660156 590.234375 C -58.828125 584.828125 -65.050781 578.285156 -70.035156 570.9375 C -76.800781 560.804688 -79.160156 549.464844 -79.691406 537.480469 C -80.25 524.214844 -78.347656 511.242188 -75.699219 498.347656 Z M -71.820312 479.550781 " fill-opacity="1" fill-rule="nonzero"/></g></g></g></g></g></g><g mask="url(#fa81751233)"><g transform="matrix(1, 0, 0, 1, 0, 39)"><g clip-path="url(#dd79ee165b)"><g clip-path="url(#03196fa4f5)"><g clip-path="url(#20d0e76088)"><g clip-path="url(#8b60bf49d7)"><path fill="#ccf0f8" d="M -112.625 479.550781 C -110.078125 469.8125 -106.707031 460.296875 -102.539062 451.128906 C -96.230469 436.945312 -92.105469 421.910156 -90.175781 406.527344 C -88.574219 392.328125 -89.410156 378.21875 -91.144531 364.125 C -92.398438 353.851562 -97.726562 345.894531 -105.261719 339.5 C -114.871094 331.390625 -124.726562 323.722656 -134.738281 316.140625 C -143.777344 309.203125 -153.433594 303.117188 -161.375 294.957031 C -172.671875 283.710938 -180.925781 269.734375 -185.371094 254.386719 C -188.503906 243.085938 -191.941406 231.960938 -195.199219 220.628906 C -197.542969 212.472656 -197.765625 204.011719 -197.246094 195.625 C -195.945312 175.101562 -190.683594 155.921875 -179.945312 138.117188 C -167.320312 117.136719 -152.964844 97.269531 -136.910156 78.632812 C -124.980469 64.84375 -110.1875 54.519531 -94.46875 45.460938 C -85.960938 40.414062 -76.847656 36.421875 -67.316406 33.6875 C -56.558594 30.65625 -45.203125 30.078125 -34.238281 32.320312 C -22.414062 34.671875 -10.835938 37.46875 -0.535156 43.984375 C 19.539062 56.621094 33.765625 73.886719 38.496094 97.464844 C 40.375 106.382812 40.726562 115.773438 40.875 124.976562 C 41.273438 145.328125 44.925781 165.425781 51.75 184.609375 C 56.808594 199.109375 64.816406 212.128906 73.246094 225.007812 C 82.515625 239.003906 92.117188 252.714844 100.628906 267.144531 C 112.867188 287.941406 123.027344 309.820312 128.652344 333.386719 C 131.828125 346.863281 133.839844 360.398438 132.484375 374.160156 C 130.121094 398.078125 120.402344 418.203125 100.660156 432.644531 C 89.636719 440.824219 78.269531 448.402344 67.195312 456.3125 C 57.117188 463.347656 47.164062 470.421875 39 479.765625 C 29.535156 490.15625 22.992188 502.875 19.882812 516.53125 C 17.679688 526.878906 15.953125 537.351562 14.019531 547.640625 C 11.761719 559.117188 8.679688 570.363281 3.140625 580.8125 C -6.542969 599.414062 -22.335938 607.8125 -42.796875 608.183594 C -61.558594 608.386719 -77.800781 601.257812 -92.464844 590.234375 C -99.636719 584.828125 -105.855469 578.285156 -110.839844 570.9375 C -117.605469 560.804688 -119.964844 549.464844 -120.496094 537.480469 C -121.058594 524.214844 -119.152344 511.242188 -116.507812 498.347656 Z M -112.625 479.550781 " fill-opacity="1" fill-rule="nonzero"/></g></g></g></g></g></g><g mask="url(#c20702114a)"><g transform="matrix(1, 0, 0, 1, 55, -0.000000000000101068)"><g clip-path="url(#2115dd32ad)"><g clip-path="url(#62312fe71f)"><g clip-path="url(#4ef8a04c8b)"><g clip-path="url(#457968ed16)"><path fill="#ccf0f8" d="M 142.859375 189.925781 C 146.914062 183.8125 151.488281 178.050781 156.527344 172.714844 C 164.226562 164.425781 170.621094 155.035156 175.585938 144.886719 C 180.042969 135.476562 182.796875 125.554688 184.933594 115.425781 C 186.492188 108.046875 184.699219 101.304688 181.015625 95.113281 C 176.304688 87.253906 171.316406 79.636719 166.207031 72.042969 C 161.609375 65.125 156.386719 58.648438 152.839844 51.144531 C 147.707031 40.722656 145.316406 29.136719 145.878906 17.503906 C 146.382812 8.972656 146.640625 0.488281 147.074219 -8.09375 C 147.382812 -14.265625 149.226562 -20.15625 151.566406 -25.8125 C 157.308594 -39.652344 165.464844 -51.632812 177.074219 -61.371094 C 190.734375 -72.851562 205.328125 -83.15625 220.800781 -92.210938 C 232.28125 -98.894531 244.921875 -102.519531 257.898438 -105.046875 C 264.957031 -106.519531 272.183594 -107.117188 279.402344 -106.75 C 287.535156 -106.296875 295.5 -104.011719 302.53125 -99.875 C 310.128906 -95.457031 317.453125 -90.796875 323.019531 -83.867188 C 333.875 -70.414062 339.605469 -55.144531 337.300781 -37.773438 C 336.492188 -31.183594 334.515625 -24.625 332.445312 -18.246094 C 327.914062 -4.121094 325.683594 10.597656 325.859375 25.4375 C 325.921875 36.628906 328.371094 47.496094 331.140625 58.367188 C 334.226562 70.207031 337.609375 81.925781 340.070312 93.886719 C 343.597656 111.117188 345.433594 128.601562 343.746094 146.179688 C 342.753906 156.21875 340.945312 166.027344 336.761719 175.191406 C 329.484375 191.125 318.03125 202.699219 301.007812 207.992188 C 291.472656 211.027344 281.847656 213.5625 272.339844 216.398438 C 263.730469 218.871094 255.195312 221.390625 247.359375 225.90625 C 238.378906 230.832031 230.863281 238.054688 225.492188 246.734375 C 221.535156 253.347656 217.867188 260.160156 214.105469 266.796875 C 209.839844 274.175781 205.054688 281.199219 198.769531 287.09375 C 187.699219 297.628906 174.828125 299.6875 160.628906 295.109375 C 147.644531 290.8125 138.128906 282.0625 130.621094 270.996094 C 126.953125 265.574219 124.207031 259.59375 122.507812 253.347656 C 120.234375 244.765625 121.285156 236.390625 123.75 228 C 126.496094 218.722656 130.875 210.230469 135.746094 201.964844 Z M 142.859375 189.925781 " fill-opacity="1" fill-rule="nonzero"/></g></g></g></g></g></g><g mask="url(#b01166958d)"><g transform="matrix(1, 0, 0, 1, 420, 492)"><g clip-path="url(#64de67055a)"><g clip-path="url(#0460cacc39)"><g clip-path="url(#4d5b5a5b14)"><g clip-path="url(#60b8c8b078)"><path fill="#ccf0f8" d="M 192.636719 444.667969 C 199.234375 437.097656 206.46875 430.097656 214.265625 423.761719 C 226.195312 413.898438 236.554688 402.300781 245.105469 389.414062 C 252.839844 377.445312 258.351562 364.472656 263.0625 351.113281 C 266.5 341.378906 265.269531 331.90625 261.375 322.847656 C 256.386719 311.332031 250.984375 300.101562 245.40625 288.878906 C 240.402344 278.667969 234.476562 268.941406 231.003906 258.121094 C 225.902344 243.058594 224.726562 226.90625 227.570312 211.222656 C 229.78125 199.734375 231.648438 188.269531 233.769531 176.703125 C 235.292969 168.378906 238.851562 160.71875 243.035156 153.457031 C 253.308594 135.707031 266.519531 120.914062 284.015625 109.78125 C 304.609375 96.652344 326.257812 85.289062 348.875 75.777344 C 365.652344 68.761719 383.453125 66.109375 401.519531 65.007812 C 411.363281 64.277344 421.277344 64.761719 431.007812 66.554688 C 441.964844 68.628906 452.371094 73.160156 461.171875 80.035156 C 470.695312 87.390625 479.796875 95.03125 486.109375 105.429688 C 498.441406 125.636719 503.488281 147.382812 497.253906 170.542969 C 494.972656 179.34375 491.121094 187.886719 487.167969 196.175781 C 478.492188 214.527344 472.832031 234.101562 470.417969 254.269531 C 468.503906 269.46875 469.882812 284.65625 471.699219 299.90625 C 473.765625 316.527344 476.261719 333.039062 477.464844 349.710938 C 479.167969 373.722656 478.535156 397.785156 473.101562 421.332031 C 469.957031 434.777344 465.75 447.765625 458.429688 459.449219 C 445.703125 479.769531 428.089844 493.421875 404.039062 497.550781 C 390.558594 499.957031 377.039062 501.671875 363.628906 503.816406 C 351.503906 505.625 339.46875 507.515625 328.027344 512.238281 C 314.957031 517.308594 303.46875 525.761719 294.625 536.582031 C 288.066406 544.84375 281.875 553.429688 275.582031 561.761719 C 268.472656 571.007812 260.722656 579.683594 251.136719 586.554688 C 234.226562 598.867188 216.390625 599.351562 197.941406 590.589844 C 181.085938 582.433594 169.738281 568.847656 161.527344 552.484375 C 157.519531 544.472656 154.863281 535.863281 153.671875 527.082031 C 152.125 515.027344 155.046875 503.847656 159.894531 492.910156 C 165.28125 480.8125 172.738281 470.070312 180.828125 459.726562 Z M 192.636719 444.667969 " fill-opacity="1" fill-rule="nonzero"/></g></g></g></g></g></g><g mask="url(#ed49779282)"><g transform="matrix(1, 0, 0, 1, 102, -0.000000000000101068)"><g clip-path="url(#9b166c165a)"><g clip-path="url(#cb18fcec20)"><g clip-path="url(#c39b6f4199)"><g clip-path="url(#f66db48b47)"><path fill="#ccf0f8" d="M 117.914062 182.101562 C 121.28125 177.027344 125.078125 172.242188 129.261719 167.816406 C 135.65625 160.933594 140.96875 153.136719 145.085938 144.710938 C 148.785156 136.894531 151.066406 128.652344 152.835938 120.238281 C 154.128906 114.109375 152.628906 108.507812 149.5625 103.363281 C 145.640625 96.828125 141.488281 90.496094 137.230469 84.183594 C 133.40625 78.429688 129.058594 73.046875 126.105469 66.808594 C 121.828125 58.148438 119.832031 48.519531 120.289062 38.855469 C 120.703125 31.769531 120.910156 24.71875 121.265625 17.589844 C 121.515625 12.460938 123.046875 7.570312 124.984375 2.871094 C 129.75 -8.621094 136.523438 -18.570312 146.167969 -26.652344 C 157.515625 -36.175781 169.640625 -44.726562 182.496094 -52.238281 C 192.035156 -57.785156 202.542969 -60.785156 213.332031 -62.875 C 219.199219 -64.09375 225.207031 -64.585938 231.207031 -64.273438 C 237.972656 -63.890625 244.597656 -61.988281 250.445312 -58.542969 C 256.765625 -54.867188 262.859375 -50.988281 267.488281 -45.230469 C 276.527344 -34.042969 281.304688 -21.355469 279.398438 -6.925781 C 278.730469 -1.449219 277.09375 3.996094 275.375 9.296875 C 271.621094 21.027344 269.777344 33.253906 269.933594 45.582031 C 269.996094 54.882812 272.039062 63.914062 274.351562 72.945312 C 276.925781 82.785156 279.746094 92.527344 281.804688 102.464844 C 284.75 116.78125 286.289062 131.308594 284.898438 145.910156 C 284.082031 154.25 282.585938 162.398438 279.113281 170.011719 C 273.074219 183.242188 263.5625 192.851562 249.410156 197.234375 C 241.488281 199.746094 233.484375 201.847656 225.585938 204.195312 C 218.429688 206.242188 211.335938 208.332031 204.824219 212.078125 C 197.359375 216.160156 191.117188 222.15625 186.660156 229.363281 C 183.371094 234.855469 180.328125 240.511719 177.207031 246.023438 C 173.664062 252.148438 169.691406 257.980469 164.472656 262.875 C 155.273438 271.621094 144.574219 273.320312 132.765625 269.503906 C 121.96875 265.925781 114.050781 258.644531 107.800781 249.449219 C 104.746094 244.941406 102.457031 239.96875 101.039062 234.78125 C 99.144531 227.648438 100.011719 220.6875 102.054688 213.722656 C 104.332031 206.015625 107.960938 198.964844 112.003906 192.101562 Z M 117.914062 182.101562 " fill-opacity="1" fill-rule="nonzero"/></g></g></g></g></g></g><g mask="url(#b3cf0f411e)"><g transform="matrix(1, 0, 0, 1, 472, 548)"><g clip-path="url(#d4121c0e5d)"><g clip-path="url(#658637c451)"><g clip-path="url(#bf708721cf)"><g clip-path="url(#aeeda8d443)"><path fill="#ccf0f8" d="M 160.875 369.125 C 166.355469 362.835938 172.367188 357.023438 178.839844 351.761719 C 188.753906 343.566406 197.355469 333.933594 204.460938 323.230469 C 210.886719 313.289062 215.460938 302.511719 219.371094 291.410156 C 222.226562 283.324219 221.203125 275.457031 217.96875 267.925781 C 213.820312 258.359375 209.328125 249.027344 204.691406 239.707031 C 200.535156 231.21875 195.609375 223.136719 192.722656 214.148438 C 188.480469 201.632812 187.5 188.214844 189.859375 175.183594 C 191.699219 165.640625 193.246094 156.113281 195.007812 146.503906 C 196.273438 139.589844 199.226562 133.226562 202.703125 127.195312 C 211.234375 112.449219 222.207031 100.160156 236.742188 90.914062 C 253.851562 80.011719 271.835938 70.570312 290.625 62.671875 C 304.5625 56.847656 319.355469 54.648438 334.363281 53.734375 C 342.542969 53.132812 350.78125 53.535156 358.863281 55.027344 C 367.96875 56.75 376.613281 60.515625 383.925781 66.230469 C 391.839844 72.34375 399.40625 78.691406 404.652344 87.332031 C 414.902344 104.121094 419.097656 122.1875 413.921875 141.429688 C 412.027344 148.742188 408.828125 155.839844 405.542969 162.722656 C 398.339844 177.972656 393.640625 194.230469 391.636719 210.988281 C 390.050781 223.617188 391.199219 236.234375 392.710938 248.902344 C 394.429688 262.710938 396.503906 276.429688 397.507812 290.28125 C 398.929688 310.234375 398.40625 330.222656 393.894531 349.785156 C 391.285156 360.957031 387.792969 371.746094 381.714844 381.453125 C 371.140625 398.332031 356.507812 409.671875 336.527344 413.097656 C 325.328125 415.09375 314.09375 416.519531 302.953125 418.296875 C 292.878906 419.796875 282.878906 421.367188 273.375 425.289062 C 262.515625 429.5 252.972656 436.519531 245.628906 445.507812 C 240.179688 452.367188 235.035156 459.503906 229.808594 466.425781 C 223.902344 474.105469 217.46875 481.3125 209.503906 487.019531 C 195.457031 497.246094 180.636719 497.644531 165.304688 490.363281 C 151.300781 483.582031 141.871094 472.292969 135.046875 458.699219 C 131.714844 452.039062 129.507812 444.886719 128.515625 437.59375 C 127.226562 427.578125 129.652344 418.289062 133.679688 409.203125 C 138.152344 399.152344 144.347656 390.230469 151.066406 381.636719 Z M 160.875 369.125 " fill-opacity="1" fill-rule="nonzero"/></g></g></g></g></g></g><g mask="url(#cb54f86c96)"><g transform="matrix(1, 0, 0, 1, 51, 482)"><g clip-path="url(#c5d2c927d6)"><g clip-path="url(#e8f40976dc)"><g clip-path="url(#45e066d191)"><g clip-path="url(#bcc4a5d797)"><path fill="#cef1f9" d="M 281.792969 171.695312 C 278.160156 274.492188 121.082031 270.9375 92.957031 262.34375 C 39.480469 246.101562 48.304688 168.578125 92.8125 160.382812 C 125.121094 154.414062 155.726562 156.25 153.613281 89.074219 C 151.878906 33.210938 198.640625 5.761719 221.582031 18.964844 C 255.121094 38.199219 284.316406 99.355469 281.792969 171.695312 Z M 281.792969 171.695312 " fill-opacity="1" fill-rule="nonzero"/></g></g></g></g></g></g><g mask="url(#624f4584a0)"><g transform="matrix(1, 0, 0, 1, 453, 1080)"><g clip-path="url(#8b813457b2)"><g clip-path="url(#1869e3b3c3)"><g clip-path="url(#16c0b849a3)"><g clip-path="url(#444a067006)"><path fill="#cef1f9" d="M 79.078125 240.179688 C 69.527344 90.480469 297.949219 73.105469 339.996094 81.539062 C 419.925781 97.4375 418.300781 211.203125 354.90625 229.484375 C 308.890625 242.78125 264.214844 244.507812 276.96875 341.6875 C 287.542969 422.507812 223.648438 469.050781 188.457031 453.183594 C 137.023438 430.085938 85.84375 345.519531 79.078125 240.179688 Z M 79.078125 240.179688 " fill-opacity="1" fill-rule="nonzero"/></g></g></g></g></g></g><g clip-path="url(#661d5e5979)"><g clip-path="url(#2a36327931)"><g clip-path="url(#4c6297b279)"><path fill="#cef1f9" d="M 315.355469 657.375 C 312.851562 727.808594 205.203125 725.398438 185.929688 719.515625 C 149.285156 708.394531 155.34375 655.277344 185.847656 649.65625 C 207.988281 645.5625 228.964844 646.8125 227.527344 600.789062 C 226.347656 562.511719 258.398438 543.699219 274.121094 552.742188 C 297.101562 565.914062 317.097656 607.8125 315.355469 657.375 Z M 315.355469 657.375 " fill-opacity="1" fill-rule="nonzero"/></g></g></g><g clip-path="url(#9a8211e1d1)"><g clip-path="url(#349dfad6a3)"><g clip-path="url(#51cebc1b37)"><path fill="#cef1f9" d="M 556.757812 1312.421875 C 550.230469 1209.769531 706.894531 1197.8125 735.730469 1203.589844 C 790.542969 1214.476562 789.410156 1292.492188 745.925781 1305.039062 C 714.367188 1314.164062 683.726562 1315.359375 692.457031 1381.996094 C 699.695312 1437.417969 655.867188 1469.34375 631.734375 1458.46875 C 596.460938 1442.636719 561.378906 1384.65625 556.757812 1312.421875 Z M 556.757812 1312.421875 " fill-opacity="1" fill-rule="nonzero"/></g></g></g></svg>